<svg width="83" height="15" viewBox="0 0 83 15" fill="none" xmlns="http://www.w3.org/2000/svg">
<circle cx="41.1951" cy="9.459" r="2.74634" fill="white"/>
<circle cx="79.6439" cy="3.96632" r="2.74634" fill="white"/>
<path d="M58.5886 2.13542C51.2651 -1.52636 44.5518 4.57664 42.1106 7.62813C44.2466 5.18693 54.9269 4.88177 63.1659 12.2053C70.4895 16.7826 77.813 10.3744 79.6439 5.79721C76.8976 8.84871 70.4895 10.3744 58.5886 2.13542Z" stroke="white" stroke-width="1.83089"/>
<circle r="2.74634" transform="matrix(-1 0 0 1 2.74646 4.1863)" fill="white"/>
<path d="M23.8016 2.3554C31.1252 -1.30638 37.8385 4.79662 40.2797 7.84811C38.1436 5.40691 27.4634 5.10174 19.2244 12.4253C11.9008 17.0026 4.57723 10.5944 2.74634 6.01719C5.49268 9.06869 11.9008 10.5944 23.8016 2.3554Z" stroke="white" stroke-width="1.83089"/>
</svg>
