<svg width="97" height="41" viewBox="0 0 97 41" fill="none" xmlns="http://www.w3.org/2000/svg">
<path d="M66.6237 39.618H65.472V3.45505C65.472 3.07332 65.1625 2.76406 64.781 2.76406H51.8821C51.5004 2.76406 51.1911 3.07332 51.1911 3.45505V6.44941H49.8091V3.45505C49.8091 3.07332 49.4997 2.76406 49.1181 2.76406H46.1237V0.690994C46.1237 0.309262 45.8142 0 45.4327 0C45.0511 0 44.7417 0.309262 44.7417 0.690994V2.76406H41.7473C41.3656 2.76406 41.0563 3.07332 41.0563 3.45505V6.44941H38.9832C38.6016 6.44941 38.2923 6.75867 38.2923 7.14041V12.8988H32.5338C32.1522 12.8988 31.8428 13.2081 31.8428 13.5898V39.6179H30.691C30.3093 39.6179 30 39.9272 30 40.3089C30 40.6907 30.3094 41 30.691 41H66.6237C67.0053 41 67.3146 40.6907 67.3146 40.309C67.3146 39.9273 67.0052 39.618 66.6237 39.618ZM42.4382 4.14605H48.4269V6.44941H42.4382V4.14605ZM40.1348 39.618H39.6742V38.4663C39.6742 38.0846 39.3647 37.7753 38.9832 37.7753C38.6016 37.7753 38.2922 38.0846 38.2922 38.4663V39.618H37.8315V37.3146H40.1348V39.618ZM44.7416 21.882V23.0707V39.618H41.5168V36.6237C41.5168 36.2419 41.2074 35.9327 40.8258 35.9327H37.1405C36.7588 35.9327 36.4495 36.2419 36.4495 36.6237V39.618H33.2247V14.2809H44.7416V21.882ZM45.4326 12.8989H39.6742V7.83148H51.191V21.191H46.1237V18.8876H48.1967C48.5784 18.8876 48.8877 18.5784 48.8877 18.1966C48.8877 17.8149 48.5783 17.5056 48.1967 17.5056H46.1237V15.2023H48.1967C48.5784 15.2023 48.8877 14.893 48.8877 14.5113C48.8877 14.1295 48.5783 13.8203 48.1967 13.8203H46.1237V13.59C46.1237 13.2082 45.8142 12.8989 45.4326 12.8989ZM57.6405 39.618H46.1237V23.0707V22.5731H57.6405V39.618ZM64.0899 39.618H59.0225V21.882V20.9606C59.0225 20.5789 58.7131 20.2696 58.3315 20.2696C57.9499 20.2696 57.6405 20.5789 57.6405 20.9606V21.1909H56.2585V20.9606C56.2585 20.5789 55.9491 20.2696 55.5675 20.2696C55.1859 20.2696 54.8765 20.5789 54.8765 20.9606V21.1909H52.5731V7.14049V4.14605H64.09V39.618H64.0899Z" fill="white"/>
<path d="M49.118 38.2361C49.4996 38.2361 49.809 37.9267 49.809 37.5451V24.6463C49.809 24.2646 49.4996 23.9553 49.118 23.9553C48.7364 23.9553 48.427 24.2646 48.427 24.6463V37.5452C48.427 37.9268 48.7363 38.2361 49.118 38.2361Z" fill="white"/>
<path d="M51.8822 38.2361C52.2638 38.2361 52.5732 37.9267 52.5732 37.5451V24.6463C52.5732 24.2646 52.2637 23.9553 51.8822 23.9553C51.5006 23.9553 51.1912 24.2646 51.1912 24.6463V37.5452C51.1911 37.9268 51.5005 38.2361 51.8822 38.2361Z" fill="white"/>
<path d="M54.6461 38.2361C55.0277 38.2361 55.3371 37.9267 55.3371 37.5451V24.6463C55.3371 24.2646 55.0276 23.9553 54.6461 23.9553C54.2645 23.9553 53.9551 24.2646 53.9551 24.6463V37.5452C53.9551 37.9268 54.2645 38.2361 54.6461 38.2361Z" fill="white"/>
<path d="M55.5675 8.75278C55.9491 8.75278 56.2585 8.44352 56.2585 8.06179V7.14049C56.2585 6.75875 55.949 6.44949 55.5675 6.44949C55.1859 6.44949 54.8765 6.75875 54.8765 7.14049V8.06187C54.8765 8.44352 55.1858 8.75278 55.5675 8.75278Z" fill="white"/>
<path d="M58.3314 8.75278C58.713 8.75278 59.0224 8.44352 59.0224 8.06179V7.14049C59.0224 6.75875 58.7129 6.44949 58.3314 6.44949C57.9498 6.44949 57.6404 6.75875 57.6404 7.14049V8.06187C57.6404 8.44352 57.9497 8.75278 58.3314 8.75278Z" fill="white"/>
<path d="M61.0955 8.75278C61.4772 8.75278 61.7865 8.44352 61.7865 8.06179V7.14049C61.7865 6.75875 61.4771 6.44949 61.0955 6.44949C60.714 6.44949 60.4045 6.75875 60.4045 7.14049V8.06187C60.4045 8.44352 60.7139 8.75278 61.0955 8.75278Z" fill="white"/>
<path d="M55.5675 13.3595C55.9491 13.3595 56.2585 13.0503 56.2585 12.6685V11.7471C56.2585 11.3654 55.949 11.0562 55.5675 11.0562C55.1859 11.0562 54.8765 11.3654 54.8765 11.7471V12.6685C54.8765 13.0503 55.1858 13.3595 55.5675 13.3595Z" fill="white"/>
<path d="M58.3314 13.3595C58.713 13.3595 59.0224 13.0503 59.0224 12.6685V11.7471C59.0224 11.3654 58.7129 11.0562 58.3314 11.0562C57.9498 11.0562 57.6404 11.3654 57.6404 11.7471V12.6685C57.6404 13.0503 57.9497 13.3595 58.3314 13.3595Z" fill="white"/>
<path d="M61.0955 13.3595C61.4772 13.3595 61.7865 13.0503 61.7865 12.6685V11.7471C61.7865 11.3654 61.4771 11.0562 61.0955 11.0562C60.714 11.0562 60.4045 11.3654 60.4045 11.7471V12.6685C60.4045 13.0503 60.7139 13.3595 61.0955 13.3595Z" fill="white"/>
<path d="M55.5675 17.9663C55.9491 17.9663 56.2585 17.6571 56.2585 17.2753V16.354C56.2585 15.9722 55.949 15.663 55.5675 15.663C55.1859 15.663 54.8765 15.9722 54.8765 16.354V17.2753C54.8765 17.657 55.1858 17.9663 55.5675 17.9663Z" fill="white"/>
<path d="M58.3314 17.9663C58.713 17.9663 59.0224 17.6571 59.0224 17.2753V16.354C59.0224 15.9722 58.7129 15.663 58.3314 15.663C57.9498 15.663 57.6404 15.9722 57.6404 16.354V17.2753C57.6404 17.657 57.9497 17.9663 58.3314 17.9663Z" fill="white"/>
<path d="M61.0955 17.9663C61.4772 17.9663 61.7865 17.6571 61.7865 17.2753V16.354C61.7865 15.9722 61.4771 15.663 61.0955 15.663C60.714 15.663 60.4045 15.9722 60.4045 16.354V17.2753C60.4045 17.657 60.7139 17.9663 61.0955 17.9663Z" fill="white"/>
<path d="M36.2191 19.809C36.6007 19.809 36.9101 19.4998 36.9101 19.118V18.1966C36.9101 17.8149 36.6006 17.5056 36.2191 17.5056C35.8375 17.5056 35.5281 17.8149 35.5281 18.1966V19.118C35.5281 19.4997 35.8375 19.809 36.2191 19.809Z" fill="white"/>
<path d="M38.9832 19.809C39.3649 19.809 39.6742 19.4998 39.6742 19.118V18.1966C39.6742 17.8149 39.3648 17.5056 38.9832 17.5056C38.6017 17.5056 38.2922 17.8149 38.2922 18.1966V19.118C38.2922 19.4997 38.6016 19.809 38.9832 19.809Z" fill="white"/>
<path d="M41.7471 19.809C42.1288 19.809 42.4381 19.4998 42.4381 19.118V18.1966C42.4381 17.8149 42.1287 17.5056 41.7471 17.5056C41.3656 17.5056 41.0562 17.8149 41.0562 18.1966V19.118C41.0562 19.4997 41.3655 19.809 41.7471 19.809Z" fill="white"/>
<path d="M36.2191 24.4157C36.6007 24.4157 36.9101 24.1065 36.9101 23.7247V22.8034C36.9101 22.4216 36.6006 22.1124 36.2191 22.1124C35.8375 22.1124 35.5281 22.4216 35.5281 22.8034V23.7247C35.5281 24.1064 35.8375 24.4157 36.2191 24.4157Z" fill="white"/>
<path d="M38.9832 24.4157C39.3649 24.4157 39.6742 24.1065 39.6742 23.7247V22.8034C39.6742 22.4216 39.3648 22.1124 38.9832 22.1124C38.6017 22.1124 38.2922 22.4216 38.2922 22.8034V23.7247C38.2922 24.1064 38.6016 24.4157 38.9832 24.4157Z" fill="white"/>
<path d="M41.7471 24.4157C42.1288 24.4157 42.4381 24.1065 42.4381 23.7247V22.8034C42.4381 22.4216 42.1287 22.1124 41.7471 22.1124C41.3656 22.1124 41.0562 22.4216 41.0562 22.8034V23.7247C41.0562 24.1064 41.3655 24.4157 41.7471 24.4157Z" fill="white"/>
<path d="M36.2191 29.0225C36.6007 29.0225 36.9101 28.7132 36.9101 28.3315V27.4101C36.9101 27.0283 36.6006 26.7191 36.2191 26.7191C35.8375 26.7191 35.5281 27.0283 35.5281 27.4101V28.3315C35.5281 28.7132 35.8375 29.0225 36.2191 29.0225Z" fill="white"/>
<path d="M38.9832 29.0225C39.3649 29.0225 39.6742 28.7132 39.6742 28.3315V27.4101C39.6742 27.0283 39.3648 26.7191 38.9832 26.7191C38.6017 26.7191 38.2922 27.0283 38.2922 27.4101V28.3315C38.2922 28.7132 38.6016 29.0225 38.9832 29.0225Z" fill="white"/>
<path d="M41.7471 29.0225C42.1288 29.0225 42.4381 28.7132 42.4381 28.3315V27.4101C42.4381 27.0283 42.1287 26.7191 41.7471 26.7191C41.3656 26.7191 41.0562 27.0283 41.0562 27.4101V28.3315C41.0562 28.7132 41.3655 29.0225 41.7471 29.0225Z" fill="white"/>
<path d="M36.2191 33.6292C36.6007 33.6292 36.9101 33.3199 36.9101 32.9382V32.0168C36.9101 31.6351 36.6006 31.3258 36.2191 31.3258C35.8375 31.3258 35.5281 31.6351 35.5281 32.0168V32.9382C35.5281 33.3199 35.8375 33.6292 36.2191 33.6292Z" fill="white"/>
<path d="M38.9832 33.6292C39.3649 33.6292 39.6742 33.3199 39.6742 32.9382V32.0168C39.6742 31.6351 39.3648 31.3258 38.9832 31.3258C38.6017 31.3258 38.2922 31.6351 38.2922 32.0168V32.9382C38.2922 33.3199 38.6016 33.6292 38.9832 33.6292Z" fill="white"/>
<path d="M41.7471 33.6292C42.1288 33.6292 42.4381 33.3199 42.4381 32.9382V32.0168C42.4381 31.6351 42.1287 31.3258 41.7471 31.3258C41.3656 31.3258 41.0562 31.6351 41.0562 32.0168V32.9382C41.0562 33.3199 41.3655 33.6292 41.7471 33.6292Z" fill="white"/>
<path d="M61.0955 22.5731C61.4772 22.5731 61.7865 22.2638 61.7865 21.8821V20.9607C61.7865 20.579 61.4771 20.2697 61.0955 20.2697C60.714 20.2697 60.4045 20.579 60.4045 20.9607V21.8821C60.4045 22.2637 60.7139 22.5731 61.0955 22.5731Z" fill="white"/>
<path d="M61.0955 27.1798C61.4772 27.1798 61.7865 26.8705 61.7865 26.4888V25.5674C61.7865 25.1857 61.4771 24.8764 61.0955 24.8764C60.714 24.8764 60.4045 25.1857 60.4045 25.5674V26.4888C60.4045 26.8705 60.7139 27.1798 61.0955 27.1798Z" fill="white"/>
<path d="M61.0955 31.7865C61.4772 31.7865 61.7865 31.4773 61.7865 31.0955V30.1741C61.7865 29.7924 61.4771 29.4832 61.0955 29.4832C60.714 29.4832 60.4045 29.7924 60.4045 30.1741V31.0955C60.4045 31.4772 60.7139 31.7865 61.0955 31.7865Z" fill="white"/>
<path d="M61.0955 36.3933C61.4772 36.3933 61.7865 36.084 61.7865 35.7023V34.7809C61.7865 34.3992 61.4771 34.0899 61.0955 34.0899C60.714 34.0899 60.4045 34.3992 60.4045 34.7809V35.7023C60.4045 36.0839 60.7139 36.3933 61.0955 36.3933Z" fill="white"/>
<path d="M48.8876 10.8258C48.8876 10.4441 48.5782 10.1348 48.1966 10.1348H42.6685C42.2869 10.1348 41.9775 10.4441 41.9775 10.8258C41.9775 11.2076 42.287 11.5168 42.6685 11.5168H48.1966C48.5783 11.5168 48.8876 11.2076 48.8876 10.8258Z" fill="white"/>
<circle cx="15.8063" cy="28.1935" r="4.19355" fill="white"/>
<circle cx="3.22581" cy="28.2258" r="3.22581" fill="white"/>
<circle r="4.195" transform="matrix(-1 0 0 1 81.1949 28.195)" fill="white"/>
<circle r="3.225" transform="matrix(-1 0 0 1 93.1649 28.225)" fill="white"/>
</svg>
