<svg width="48" height="48" viewBox="0 0 48 48" fill="none" xmlns="http://www.w3.org/2000/svg">
<path d="M31.153 12.771H16.8468C14.5634 12.771 12.7056 14.6288 12.7056 16.9123V31.2185C12.7056 33.5019 14.5634 35.3603 16.8468 35.3603H31.153C33.4365 35.3603 35.2948 33.5025 35.2948 31.2185V16.9123C35.2948 14.6288 33.437 12.771 31.153 12.771ZM23.9999 31.5019C19.8998 31.5019 16.5639 28.166 16.5639 24.0654C16.5639 19.9653 19.8998 16.6294 23.9999 16.6294C28.1006 16.6294 31.4365 19.9653 31.4365 24.0654C31.4365 28.1655 28.1 31.5019 23.9999 31.5019ZM31.6755 18.1668C30.7049 18.1668 29.9156 17.3775 29.9156 16.4074C29.9156 15.4374 30.7049 14.648 31.6755 14.648C32.6456 14.648 33.4349 15.4374 33.4349 16.4074C33.4349 17.3775 32.6456 18.1668 31.6755 18.1668Z" fill="white"/>
<path d="M23.9998 19.771C21.6329 19.771 19.7056 21.6972 19.7056 24.0641C19.7056 26.4321 21.6329 28.3589 23.9998 28.3589C26.3678 28.3589 28.2935 26.4321 28.2935 24.0641C28.2935 21.6978 26.3673 19.771 23.9998 19.771Z" fill="white"/>
<path d="M24 0C10.7457 0 0 10.7457 0 24C0 37.2543 10.7457 48 24 48C37.2543 48 48 37.2543 48 24C48 10.7457 37.2543 0 24 0ZM38.4367 31.2178C38.4367 35.2345 35.1698 38.5014 31.1531 38.5014H16.8469C12.8308 38.5014 9.56331 35.2345 9.56331 31.2178V16.9116C9.56331 12.8955 12.8308 9.62802 16.8469 9.62802H31.1531C35.1698 9.62802 38.4367 12.8955 38.4367 16.9116V31.2178Z" fill="white"/>
</svg>
