<svg width="48" height="48" viewBox="0 0 48 48" fill="none" xmlns="http://www.w3.org/2000/svg">
<path d="M24 48C37.2548 48 48 37.2548 48 24C48 10.7452 37.2548 0 24 0C10.7452 0 0 10.7452 0 24C0 37.2548 10.7452 48 24 48Z" fill="white"/>
<path d="M38.7009 17.2478C37.6724 17.7038 36.5661 18.0123 35.4058 18.15C36.5904 17.4403 37.4996 16.3173 37.9287 14.9769C36.8202 15.6344 35.5919 16.1115 34.2858 16.3686C33.2393 15.2541 31.7483 14.5576 30.0974 14.5576C26.9298 14.5576 24.3607 17.1267 24.3607 20.2943C24.3607 20.7439 24.4116 21.1816 24.51 21.6017C19.7424 21.3626 15.515 19.0788 12.6854 15.6071C12.1917 16.4542 11.9085 17.4403 11.9085 18.4914C11.9085 20.4813 12.922 22.2379 14.4605 23.2664C13.5205 23.2369 12.6354 22.9789 11.8623 22.5481C11.8619 22.5724 11.8619 22.5968 11.8619 22.6208C11.8619 25.4004 13.8401 27.7187 16.464 28.2454C15.9831 28.3771 15.4753 28.4469 14.9529 28.4469C14.5824 28.4469 14.2234 28.4114 13.8735 28.3446C14.6034 30.6232 16.7215 32.2819 19.2324 32.3285C17.2687 33.8674 14.7954 34.7842 12.107 34.7842C11.645 34.7842 11.1872 34.7573 10.7393 34.7038C13.2767 36.3321 16.2928 37.2814 19.5323 37.2814C30.0841 37.2814 35.8546 28.5401 35.8546 20.9587C35.8546 20.7101 35.849 20.4624 35.8379 20.2169C36.9597 19.4083 37.9321 18.3982 38.7009 17.2478Z" fill="#D4B485"/>
</svg>
