<svg width="16" height="19" viewBox="0 0 16 19" fill="none" xmlns="http://www.w3.org/2000/svg">
<path d="M11.4904 8.29327C10.6603 9.1234 9.65064 9.53846 8.46154 9.53846C7.27244 9.53846 6.2516 9.1234 5.39904 8.29327C4.56891 7.4407 4.15385 6.41987 4.15385 5.23077C4.15385 4.04167 4.56891 3.03205 5.39904 2.20192C6.2516 1.34936 7.27244 0.923076 8.46154 0.923076C9.65064 0.923076 10.6603 1.34936 11.4904 2.20192C12.3429 3.03205 12.7692 4.04167 12.7692 5.23077C12.7692 6.41987 12.3429 7.4407 11.4904 8.29327ZM11.4904 10.6154C12.7244 10.6154 13.7788 11.0641 14.6538 11.9615C15.5513 12.8365 16 13.891 16 15.125V16.5385C16 16.9872 15.8429 17.3686 15.5288 17.6827C15.2147 17.9968 14.8333 18.1538 14.3846 18.1538H2.53846C2.08974 18.1538 1.70833 17.9968 1.39423 17.6827C1.08013 17.3686 0.923077 16.9872 0.923077 16.5385V15.125C0.923077 13.891 1.36058 12.8365 2.23558 11.9615C3.13301 11.0641 4.19872 10.6154 5.43269 10.6154H6.00481C6.79006 10.9744 7.60897 11.1538 8.46154 11.1538C9.3141 11.1538 10.133 10.9744 10.9183 10.6154H11.4904Z" fill="#AE8B59"/>
</svg>
